<?xml version="1.0" encoding="UTF-8" standalone="no"?>
<!DOCTYPE svg PUBLIC "-//W3C//DTD SVG 1.1//EN"
 "http://www.w3.org/Graphics/SVG/1.1/DTD/svg11.dtd">
<!-- Generated by graphviz version 2.43.0 (0)
 -->
<!-- Title: %3 Pages: 1 -->
<svg width="614pt" height="141pt"
 viewBox="0.00 0.00 614.00 141.00" xmlns="http://www.w3.org/2000/svg" xmlns:xlink="http://www.w3.org/1999/xlink">
<g id="graph0" class="graph" transform="scale(1 1) rotate(0) translate(4 137)">
<title>%3</title>
<polygon fill="white" stroke="transparent" points="-4,4 -4,-137 610,-137 610,4 -4,4"/>
<!-- 2 -->
<g id="node1" class="node">
<title>2</title>
<polygon fill="#ff0000" stroke="#ff0000" points="313.5,-133 252.5,-133 252.5,-81 313.5,-81 313.5,-133"/>
<text text-anchor="middle" x="283" y="-121" font-family="Arial" font-size="10.00" fill="#ffffff">main</text>
<text text-anchor="middle" x="283" y="-110" font-family="Arial" font-size="10.00" fill="#ffffff">100.00%</text>
<text text-anchor="middle" x="283" y="-99" font-family="Arial" font-size="10.00" fill="#ffffff">(100.00%)</text>
<text text-anchor="middle" x="283" y="-88" font-family="Arial" font-size="10.00" fill="#ffffff">6×</text>
</g>
<!-- 9 -->
<g id="node2" class="node">
<title>9</title>
<polygon fill="#ff0000" stroke="#ff0000" points="566,-52 0,-52 0,0 566,0 566,-52"/>
<text text-anchor="middle" x="283" y="-40" font-family="Arial" font-size="10.00" fill="#ffffff">covariancePredictor(Eigen::Matrix&lt;float, 6, 6, 0, 6, 6&gt;*, Eigen::Matrix&lt;float, 6, 6, 0, 6, 6&gt;*, Eigen::Matrix&lt;float, 6, 6, 0, 6, 6&gt;*)</text>
<text text-anchor="middle" x="283" y="-29" font-family="Arial" font-size="10.00" fill="#ffffff">100.00%</text>
<text text-anchor="middle" x="283" y="-18" font-family="Arial" font-size="10.00" fill="#ffffff">(100.00%)</text>
<text text-anchor="middle" x="283" y="-7" font-family="Arial" font-size="10.00" fill="#ffffff">172×</text>
</g>
<!-- 2&#45;&gt;9 -->
<g id="edge1" class="edge">
<title>2&#45;&gt;9</title>
<path fill="none" stroke="#ff0000" stroke-width="4" d="M273,-80.63C272.19,-77.75 271.49,-74.84 271,-72 270.44,-68.73 270.37,-65.36 270.64,-61.99"/>
<polygon fill="#ff0000" stroke="#ff0000" stroke-width="4" points="274.1,-62.5 272.35,-52.05 267.21,-61.31 274.1,-62.5"/>
<text text-anchor="middle" x="279.5" y="-64" font-family="Arial" font-size="10.00" fill="#ff0000">22×</text>
</g>
<!-- 9&#45;&gt;2 -->
<g id="edge2" class="edge">
<title>9&#45;&gt;2</title>
<path fill="none" stroke="#ff0000" stroke-width="4" d="M285.48,-52.23C285.69,-55.19 285.87,-58.16 286,-61 286.14,-64.11 286.16,-67.33 286.1,-70.57"/>
<polygon fill="#ff0000" stroke="#ff0000" stroke-width="4" points="282.59,-70.64 285.67,-80.78 289.59,-70.94 282.59,-70.64"/>
<text text-anchor="middle" x="292" y="-64" font-family="Arial" font-size="10.00" fill="#ff0000">6×</text>
</g>
<!-- 9&#45;&gt;9 -->
<g id="edge3" class="edge">
<title>9&#45;&gt;9</title>
<path fill="none" stroke="#ff0000" stroke-width="4" d="M566.19,-29.33C566.27,-29.31 566.36,-29.3 566.45,-29.28"/>
<polygon fill="#ff0000" stroke="#ff0000" stroke-width="4" points="570.08,-32.53 566.19,-22.67 563.09,-32.81 570.08,-32.53"/>
<text text-anchor="middle" x="586" y="-23.5" font-family="Arial" font-size="10.00" fill="#ff0000">116×</text>
</g>
</g>
</svg>
