<?xml version="1.0" encoding="UTF-8" standalone="no"?>
<!DOCTYPE svg PUBLIC "-//W3C//DTD SVG 1.1//EN"
 "http://www.w3.org/Graphics/SVG/1.1/DTD/svg11.dtd">
<!-- Generated by graphviz version 2.43.0 (0)
 -->
<!-- Title: %3 Pages: 1 -->
<svg width="1117pt" height="60pt"
 viewBox="0.00 0.00 1116.50 60.00" xmlns="http://www.w3.org/2000/svg" xmlns:xlink="http://www.w3.org/1999/xlink">
<g id="graph0" class="graph" transform="scale(1 1) rotate(0) translate(4 56)">
<title>%3</title>
<polygon fill="white" stroke="transparent" points="-4,4 -4,-56 1112.5,-56 1112.5,4 -4,4"/>
<!-- 8 -->
<g id="node1" class="node">
<title>8</title>
<polygon fill="#ff0000" stroke="#ff0000" points="61,-52 0,-52 0,0 61,0 61,-52"/>
<text text-anchor="middle" x="30.5" y="-40" font-family="Arial" font-size="10.00" fill="#ffffff">_fini</text>
<text text-anchor="middle" x="30.5" y="-29" font-family="Arial" font-size="10.00" fill="#ffffff">100.00%</text>
<text text-anchor="middle" x="30.5" y="-18" font-family="Arial" font-size="10.00" fill="#ffffff">(100.00%)</text>
<text text-anchor="middle" x="30.5" y="-7" font-family="Arial" font-size="10.00" fill="#ffffff">172×</text>
</g>
<!-- 9 -->
<g id="node2" class="node">
<title>9</title>
<polygon fill="#ff0000" stroke="#ff0000" points="258.5,-52 70.5,-52 70.5,0 258.5,0 258.5,-52"/>
<text text-anchor="middle" x="164.5" y="-40" font-family="Arial" font-size="10.00" fill="#ffffff">covariancePredictor(float*, float*, float*)</text>
<text text-anchor="middle" x="164.5" y="-29" font-family="Arial" font-size="10.00" fill="#ffffff">100.00%</text>
<text text-anchor="middle" x="164.5" y="-18" font-family="Arial" font-size="10.00" fill="#ffffff">(100.00%)</text>
<text text-anchor="middle" x="164.5" y="-7" font-family="Arial" font-size="10.00" fill="#ffffff">2×</text>
</g>
<!-- 10 -->
<g id="node3" class="node">
<title>10</title>
<polygon fill="#ff0000" stroke="#ff0000" points="487,-52 268,-52 268,0 487,0 487,-52"/>
<text text-anchor="middle" x="377.5" y="-40" font-family="Arial" font-size="10.00" fill="#ffffff">matmultvec(float*, int, float*, int, int, float*, int)</text>
<text text-anchor="middle" x="377.5" y="-29" font-family="Arial" font-size="10.00" fill="#ffffff">100.00%</text>
<text text-anchor="middle" x="377.5" y="-18" font-family="Arial" font-size="10.00" fill="#ffffff">(100.00%)</text>
<text text-anchor="middle" x="377.5" y="-7" font-family="Arial" font-size="10.00" fill="#ffffff">1×</text>
</g>
<!-- 11 -->
<g id="node4" class="node">
<title>11</title>
<polygon fill="#ff0000" stroke="#ff0000" points="735,-52 496,-52 496,0 735,0 735,-52"/>
<text text-anchor="middle" x="615.5" y="-40" font-family="Arial" font-size="10.00" fill="#ffffff">addmats(float*, int, int, float*, int, int, float*, int, int)</text>
<text text-anchor="middle" x="615.5" y="-29" font-family="Arial" font-size="10.00" fill="#ffffff">100.00%</text>
<text text-anchor="middle" x="615.5" y="-18" font-family="Arial" font-size="10.00" fill="#ffffff">(100.00%)</text>
<text text-anchor="middle" x="615.5" y="-7" font-family="Arial" font-size="10.00" fill="#ffffff">1×</text>
</g>
<!-- 12 -->
<g id="node5" class="node">
<title>12</title>
<polygon fill="#ff0000" stroke="#ff0000" points="983,-52 744,-52 744,0 983,0 983,-52"/>
<text text-anchor="middle" x="863.5" y="-40" font-family="Arial" font-size="10.00" fill="#ffffff">submats(float*, int, int, float*, int, int, float*, int, int)</text>
<text text-anchor="middle" x="863.5" y="-29" font-family="Arial" font-size="10.00" fill="#ffffff">100.00%</text>
<text text-anchor="middle" x="863.5" y="-18" font-family="Arial" font-size="10.00" fill="#ffffff">(100.00%)</text>
<text text-anchor="middle" x="863.5" y="-7" font-family="Arial" font-size="10.00" fill="#ffffff">1×</text>
</g>
<!-- 13 -->
<g id="node6" class="node">
<title>13</title>
<polygon fill="#ff0000" stroke="#ff0000" points="1108.5,-52 992.5,-52 992.5,0 1108.5,0 1108.5,-52"/>
<text text-anchor="middle" x="1050.5" y="-40" font-family="Arial" font-size="10.00" fill="#ffffff">__do_global_dtors_aux</text>
<text text-anchor="middle" x="1050.5" y="-29" font-family="Arial" font-size="10.00" fill="#ffffff">100.00%</text>
<text text-anchor="middle" x="1050.5" y="-18" font-family="Arial" font-size="10.00" fill="#ffffff">(100.00%)</text>
<text text-anchor="middle" x="1050.5" y="-7" font-family="Arial" font-size="10.00" fill="#ffffff">1×</text>
</g>
</g>
</svg>
